<?xml version="1.0" standalone="no"?>
<!DOCTYPE svg PUBLIC "-//W3C//DTD SVG 20010904//EN"
 "http://www.w3.org/TR/2001/REC-SVG-20010904/DTD/svg10.dtd">
<svg version="1.0" xmlns="http://www.w3.org/2000/svg"
 width="1000.000000pt" height="1000.000000pt" viewBox="0 0 1000.000000 1000.000000"
 preserveAspectRatio="xMidYMid meet">
<metadata>
Created by potrace 1.14, written by Peter Selinger 2001-2017
</metadata>
<g transform="translate(0.000000,1000.000000) scale(0.100000,-0.100000)"
fill="#000000" stroke="none">
<path d="M4535 7369 c-545 -30 -1028 -213 -1313 -498 -185 -184 -306 -424
-341 -675 -16 -114 -14 -360 4 -453 78 -409 344 -681 850 -868 121 -45 369
-116 511 -147 57 -13 104 -27 104 -33 0 -5 -20 -106 -45 -224 -25 -118 -44
-215 -42 -217 8 -8 250 -55 261 -51 15 6 78 155 68 161 -4 2 -33 9 -65 16 -47
9 -57 15 -53 28 5 16 56 250 56 257 0 1 28 -4 63 -11 34 -7 69 -13 78 -14 17
0 66 97 109 218 13 34 26 62 29 62 26 0 327 -73 373 -90 192 -72 275 -216 223
-386 -8 -27 -15 -52 -15 -55 0 -4 30 -14 68 -23 37 -9 75 -19 84 -22 14 -4 20
6 32 48 36 130 28 230 -27 341 -18 37 -31 67 -27 67 33 0 342 -100 441 -142
366 -157 529 -372 529 -695 0 -230 -64 -403 -201 -548 -190 -200 -485 -320
-891 -364 -138 -15 -405 -13 -525 4 -451 64 -875 290 -1116 595 -130 165 -166
192 -257 192 -135 0 -310 -144 -310 -254 0 -70 149 -287 300 -439 544 -545
1467 -753 2361 -533 342 83 603 219 800 414 179 178 285 375 341 633 18 83 22
136 22 287 1 204 -9 281 -56 430 -92 289 -269 497 -565 663 -124 70 -340 156
-508 202 -71 20 -141 40 -155 44 -20 6 -26 16 -32 54 -23 162 -115 279 -283
358 -129 60 -127 60 -158 -19 -15 -37 -27 -72 -27 -78 0 -6 19 -17 43 -24 97
-29 191 -100 228 -172 20 -38 25 -68 12 -68 -5 1 -59 11 -120 24 l-113 23 -11
-41 c-21 -79 -81 -261 -89 -270 -8 -8 -139 18 -415 83 -115 27 -120 29 -117
52 2 13 20 105 41 204 22 99 38 181 37 182 -7 8 -167 49 -170 44 -2 -3 -23
-96 -46 -206 -23 -110 -45 -205 -49 -211 -7 -14 -337 67 -490 121 -263 92
-444 221 -515 367 -73 149 -73 383 -1 560 156 383 706 612 1390 577 312 -16
501 -58 698 -155 113 -55 167 -95 297 -218 122 -116 205 -180 256 -196 101
-34 243 50 300 175 22 47 23 58 14 101 -14 60 -88 162 -215 293 -287 298 -623
455 -1082 505 -163 18 -411 25 -578 15z"/>
<path d="M4828 5763 c-9 -43 -15 -79 -14 -80 5 -6 281 -61 286 -58 9 6 63 145
58 150 -4 5 -289 65 -305 65 -5 0 -16 -35 -25 -77z"/>
<path d="M4703 4323 c-4 -10 -19 -47 -34 -83 -15 -36 -26 -66 -25 -67 5 -6
334 -72 371 -75 l39 -3 18 75 c22 97 22 100 -4 100 -19 0 -253 46 -336 65 -16
4 -24 0 -29 -12z"/>
</g>
</svg>
