<svg xmlns="http://www.w3.org/2000/svg" xmlns:xlink="http://www.w3.org/1999/xlink" id="svg2" width="16" height="16" version="1.0" style="background-color:#333"><defs id="defs4"><linearGradient id="linearGradient3171"><stop id="stop3173" offset="0" style="stop-color:#000;stop-opacity:1"/><stop id="stop3175" offset="1" style="stop-color:#000;stop-opacity:0"/></linearGradient><linearGradient id="linearGradient3342" x1="4.938" x2="8" y1="11" y2="11" gradientUnits="userSpaceOnUse" xlink:href="#linearGradient3171"/><linearGradient id="linearGradient3266"><stop id="stop3268" offset="0" style="stop-color:#505050;stop-opacity:1"/><stop id="stop3270" offset="1" style="stop-color:#505050;stop-opacity:0"/></linearGradient><linearGradient id="linearGradient3340" x1="3.889" x2="4.329" y1="15.657" y2="12.843" gradientTransform="translate(2,0)" gradientUnits="userSpaceOnUse" xlink:href="#linearGradient3266"/><linearGradient id="linearGradient3338" x1="3.5" x2="3.5" y1="14.031" y2="7.996" gradientUnits="userSpaceOnUse" xlink:href="#linearGradient3242"/><linearGradient id="linearGradient3242"><stop id="stop3244" offset="0" style="stop-color:#505050;stop-opacity:1"/><stop style="stop-color:#a7a7a7;stop-opacity:1" id="stop3260" offset=".5"/><stop style="stop-color:#fff;stop-opacity:1" id="stop3250" offset=".7"/><stop id="stop3246" offset="1" style="stop-color:#c8c8c8;stop-opacity:1"/></linearGradient><linearGradient id="linearGradient3336" x1="7.613" x2="5.525" y1="14.757" y2="7.243" gradientUnits="userSpaceOnUse" xlink:href="#linearGradient3242"/><linearGradient id="ShadowGradient"><stop style="stop-color:#000;stop-opacity:1" id="stop3393" offset="0"/><stop style="stop-color:#000;stop-opacity:0" id="stop3395" offset="1"/></linearGradient><linearGradient id="StandardGradient"><stop style="stop-color:#000;stop-opacity:1" id="stop3389" offset="0"/><stop style="stop-color:#646464;stop-opacity:1" id="stop3391" offset="1"/></linearGradient><linearGradient id="linearGradient3381" x1="9.938" x2="9.938" y1="3" y2="19.018" gradientUnits="userSpaceOnUse" xlink:href="#StandardGradient"/><linearGradient id="linearGradient3782" x1="9.75" x2="9.75" y1="5" y2="19.056" gradientTransform="translate(0,-1)" gradientUnits="userSpaceOnUse" xlink:href="#StandardGradient"/><linearGradient id="linearGradient2400" x1="9.75" x2="9.75" y1="5" y2="19.056" gradientTransform="translate(-9,10)" gradientUnits="userSpaceOnUse" xlink:href="#StandardGradient"/><linearGradient id="linearGradient3174" x1="9.75" x2="9.75" y1="5" y2="19.056" gradientTransform="matrix(0.7071068,0.7071068,-0.7071068,0.7071068,0.8856249,4.1536343)" gradientUnits="userSpaceOnUse" xlink:href="#StandardGradient"/><linearGradient id="linearGradient3178" x1="9.75" x2="9.75" y1="5" y2="19.056" gradientTransform="matrix(0,1,-1,0,12.009822,7.0098219)" gradientUnits="userSpaceOnUse" xlink:href="#StandardGradient"/><linearGradient id="linearGradient3182" x1="9.75" x2="9.75" y1="5" y2="19.056" gradientTransform="matrix(-0.7071068,0.7071068,-0.7071068,-0.7071068,17.856188,16.895447)" gradientUnits="userSpaceOnUse" xlink:href="#StandardGradient"/><linearGradient id="linearGradient3186" x1="9.75" x2="9.75" y1="5" y2="19.056" gradientTransform="matrix(-1,0,0,-1,15,28.019644)" gradientUnits="userSpaceOnUse" xlink:href="#StandardGradient"/><linearGradient id="linearGradient3190" x1="9.75" x2="9.75" y1="5" y2="19.056" gradientTransform="matrix(-0.7071068,-0.7071068,0.7071068,-0.7071068,5.1143752,33.866009)" gradientUnits="userSpaceOnUse" xlink:href="#StandardGradient"/><linearGradient id="linearGradient3194" x1="9.75" x2="9.75" y1="5" y2="19.056" gradientTransform="matrix(0,-1,1,0,-6.0098215,31.009821)" gradientUnits="userSpaceOnUse" xlink:href="#StandardGradient"/><linearGradient id="linearGradient3198" x1="9.75" x2="9.75" y1="5" y2="19.056" gradientTransform="matrix(0.7071068,-0.7071068,0.7071068,0.7071068,-11.856186,21.124197)" gradientUnits="userSpaceOnUse" xlink:href="#StandardGradient"/><linearGradient id="linearGradient3224" x1="9.75" x2="9.75" y1="5" y2="19.056" gradientTransform="matrix(0.7071068,0.7071068,-0.7071068,0.7071068,11.292893,-6.263456)" gradientUnits="userSpaceOnUse" xlink:href="#StandardGradient"/><linearGradient id="linearGradient2407" x1="9.75" x2="9.75" y1="5" y2="19.056" gradientTransform="translate(-22,-5)" gradientUnits="userSpaceOnUse" xlink:href="#StandardGradient"/><linearGradient id="linearGradient3228" x1="6.701" x2="6.701" y1="1" y2="15.001" gradientUnits="userSpaceOnUse" xlink:href="#StandardGradient"/><linearGradient id="linearGradient2630" x1="4.938" x2="8" y1="11" y2="11" gradientTransform="translate(4.8043455e-2,-1.0546018)" gradientUnits="userSpaceOnUse" xlink:href="#linearGradient3171"/><linearGradient id="linearGradient2633" x1="3.889" x2="4.329" y1="15.657" y2="12.843" gradientTransform="translate(2.0480435,-1.0546018)" gradientUnits="userSpaceOnUse" xlink:href="#linearGradient3266"/><linearGradient id="linearGradient2636" x1="3.5" x2="3.5" y1="14.031" y2="7.996" gradientTransform="translate(4.8043455e-2,-1.0546018)" gradientUnits="userSpaceOnUse" xlink:href="#linearGradient3242"/><linearGradient id="linearGradient2639" x1="7.613" x2="5.525" y1="14.757" y2="7.243" gradientTransform="translate(4.8043455e-2,-1.0546018)" gradientUnits="userSpaceOnUse" xlink:href="#linearGradient3242"/><linearGradient id="linearGradient2641" x1="7.613" x2="5.525" y1="14.757" y2="7.243" gradientTransform="translate(-2,-2.9999999)" gradientUnits="userSpaceOnUse" xlink:href="#linearGradient3242"/><linearGradient id="linearGradient3421" x1="8.438" x2="8.438" y1="1" y2="15.008" gradientUnits="userSpaceOnUse" xlink:href="#StandardGradient"/><linearGradient id="linearGradient2433" x1="8.438" x2="8.438" y1="1" y2="15.008" gradientTransform="matrix(1.2397314,0,0,1,-2.1450456,0)" gradientUnits="userSpaceOnUse" xlink:href="#StandardGradient"/><linearGradient id="linearGradient2435" x1="8.438" x2="8.438" y1="1" y2="15.008" gradientTransform="matrix(1.3065009,0,0,1,-3.6644889,0)" gradientUnits="userSpaceOnUse" xlink:href="#StandardGradient"/><linearGradient id="linearGradient2437" x1="8.438" x2="8.438" y1="1" y2="15.008" gradientTransform="matrix(1.315615,0,0,1,-4.7200494,0)" gradientUnits="userSpaceOnUse" xlink:href="#StandardGradient"/><linearGradient id="linearGradient2898" x1="8.438" x2="8.438" y1="1" y2="15.008" gradientUnits="userSpaceOnUse" xlink:href="#StandardGradient"/><linearGradient id="linearGradient3538" x1="16.5" x2="16.5" y1="19.543" y2="2.5" gradientTransform="translate(1,0)" gradientUnits="userSpaceOnUse" xlink:href="#linearGradient4081"/><linearGradient id="linearGradient4081"><stop style="stop-color:#aaa;stop-opacity:1" id="stop4083" offset="0"/><stop style="stop-color:#f0f0f0;stop-opacity:1" id="stop4085" offset="1"/></linearGradient><linearGradient id="linearGradient3542" x1="10.505" x2="10.505" y1="15.281" y2="6.746" gradientTransform="translate(-4,-3)" gradientUnits="userSpaceOnUse" xlink:href="#linearGradient4081"/><linearGradient id="linearGradient2926"><stop style="stop-color:#aaa;stop-opacity:1" id="stop2928" offset="0"/><stop style="stop-color:#f0f0f0;stop-opacity:1" id="stop2930" offset="1"/></linearGradient><linearGradient id="linearGradient3540" x1="14.525" x2="14.525" y1="17.419" y2="4.625" gradientTransform="translate(-4,-3)" gradientUnits="userSpaceOnUse" xlink:href="#linearGradient4081"/><linearGradient id="linearGradient2933"><stop style="stop-color:#aaa;stop-opacity:1" id="stop2935" offset="0"/><stop style="stop-color:#f0f0f0;stop-opacity:1" id="stop2937" offset="1"/></linearGradient><linearGradient id="linearGradient2942" x1="16.5" x2="16.5" y1="19.543" y2="2.5" gradientTransform="translate(-4,-3)" gradientUnits="userSpaceOnUse" xlink:href="#linearGradient4081"/><linearGradient id="linearGradient2945" x1="16.5" x2="16.5" y1="19.543" y2="2.5" gradientTransform="translate(-4,-3)" gradientUnits="userSpaceOnUse" xlink:href="#linearGradient4081"/><linearGradient id="linearGradient2948" x1="16.5" x2="16.5" y1="19.543" y2="2.5" gradientTransform="matrix(1,0,0,0.94352368,-4,-2.3752307)" gradientUnits="userSpaceOnUse" xlink:href="#linearGradient4081"/><linearGradient id="linearGradient2950" x1="8.438" x2="8.438" y1="1" y2="15.008" gradientUnits="userSpaceOnUse" xlink:href="#StandardGradient"/><linearGradient id="linearGradient3729" x1="8.438" x2="8.438" y1="1" y2="15.008" gradientTransform="translate(0,1)" gradientUnits="userSpaceOnUse" xlink:href="#StandardGradient"/><linearGradient id="linearGradient3731" x1="8.438" x2="8.438" y1="1" y2="15.008" gradientUnits="userSpaceOnUse" xlink:href="#StandardGradient"/><linearGradient id="StandardGradient-1" x1="7.19" x2="7.19" y1="6.955" y2="18.319" gradientTransform="scale(1.1467263,0.8720476)" gradientUnits="userSpaceOnUse"><stop style="stop-color:#000;stop-opacity:.86274511" id="stop3280" offset="0"/><stop style="stop-color:#000;stop-opacity:.47058824" id="stop3282" offset="1"/></linearGradient><linearGradient id="linearGradient3785" x1="7.19" x2="7.19" y1="6.955" y2="18.319" gradientTransform="matrix(1.1467263,0,0,0.8720476,2.5196744,8.5383193)" gradientUnits="userSpaceOnUse" xlink:href="#StandardGradient-1"/><linearGradient id="linearGradient3804" x1="8.438" x2="8.438" y1="1" y2="15.008" gradientUnits="userSpaceOnUse" xlink:href="#StandardGradient-1"/><linearGradient id="linearGradient3808" x1="8.438" x2="8.438" y1="1" y2="15.008" gradientTransform="translate(0,1)" gradientUnits="userSpaceOnUse" xlink:href="#StandardGradient-1"/><linearGradient id="linearGradient3812" x1="8.438" x2="8.438" y1="1" y2="15.008" gradientUnits="userSpaceOnUse" xlink:href="#StandardGradient-1"/><linearGradient id="linearGradient3817" x1="8.438" x2="8.438" y1="1" y2="15.008" gradientTransform="translate(-20,0)" gradientUnits="userSpaceOnUse" xlink:href="#StandardGradient-1"/><clipPath id="clipPath3824" clipPathUnits="userSpaceOnUse"><path style="fill:#f0f;fill-opacity:1;stroke:none;display:inline" id="path3826" d="m -20,0 0,16 16,0 0,-16 -16,0 z M -7.625,1 C -5.995915,2.9288438 -5,5.3432918 -5,8 c 1e-6,2.708425 -1.032388,5.178784 -2.71875,7.125 l -1.5,-1.25 c 1.364366,-1.613056 2.1875,-3.651801 2.1875,-5.875 0,-2.1639699 -0.76332,-4.1574263 -2.0625,-5.75 L -7.625,1 z M -9.8125,2.84375 C -8.662551,4.2737473 -8,6.0683029 -8,8 c 0,1.9878056 -0.722863,3.803569 -1.9375,5.25 l -1.5,-1.28125 C -10.539955,10.861821 -10,9.5005507 -10,8 -10,6.5562172 -10.506676,5.24065 -11.34375,4.15625 l 1.53125,-1.3125 z m -5.1875,1.125 0,8 L -17,10 -18.5,10 C -18.777,10 -19,9.777 -19,9.5 l 0,-3 C -19,6.223 -18.777,6 -18.5,6 l 1.5,0 2,-2.03125 z M -12.0625,4.75 C -11.393055,5.6663669 -11,6.8041149 -11,8 c 0,1.2594208 -0.420217,2.432325 -1.15625,3.375 L -13.6875,10.0625 C -13.263995,9.4700266 -13,8.7691247 -13,8 -13,7.2815285 -13.219346,6.6300346 -13.59375,6.0625 L -12.0625,4.75 z"/></clipPath><linearGradient id="linearGradient3750" x1="11" x2="11" y1="3" y2="20.117" gradientUnits="userSpaceOnUse" xlink:href="#StandardGradient-6"/><linearGradient id="StandardGradient-6" x1="10.71" x2="10.71" y1="1.996" y2="18.974" gradientTransform="matrix(0.9984539,0,0,0.9984539,-0.0459776,0.05767558)" gradientUnits="userSpaceOnUse"><stop style="stop-color:#000;stop-opacity:.86274511" id="stop3277" offset="0"/><stop style="stop-color:#000;stop-opacity:.47058824" id="stop3279" offset="1"/></linearGradient><linearGradient id="linearGradient2954" x1="11" x2="11" y1="3" y2="20.117" gradientTransform="matrix(0.77744586,0,0,0.77121526,-0.55489171,-1.3761043)" gradientUnits="userSpaceOnUse" xlink:href="#StandardGradient-6"/><linearGradient id="linearGradient2953" x1="11" x2="11" y1="3" y2="20.117" gradientTransform="matrix(0.77744586,0,0,0.77121526,-0.55489171,-0.3761043)" gradientUnits="userSpaceOnUse" xlink:href="#StandardGradient-6"/><linearGradient id="linearGradient2955" x1="11" x2="11" y1="3" y2="20.117" gradientTransform="matrix(0.77744586,0,0,0.77121526,-0.55489171,-1.3761043)" gradientUnits="userSpaceOnUse" xlink:href="#StandardGradient-6"/><linearGradient id="linearGradient3732" x1="11" x2="11" y1="3" y2="20.117" gradientTransform="matrix(0.77744586,0,0,0.77121526,-0.55489171,-0.3761043)" gradientUnits="userSpaceOnUse" xlink:href="#StandardGradient-6"/><linearGradient id="linearGradient3736" x1="11" x2="11" y1="3" y2="20.117" gradientTransform="matrix(0.77744586,0,0,0.77121526,-0.55489171,-1.3761043)" gradientUnits="userSpaceOnUse" xlink:href="#StandardGradient-6"/><linearGradient id="linearGradient3741" x1="11" x2="11" y1="3" y2="20.117" gradientTransform="matrix(0.77744586,0,0,0.77121526,-20.554892,-1.3761043)" gradientUnits="userSpaceOnUse" xlink:href="#StandardGradient-6"/><clipPath id="clipPath3748" clipPathUnits="userSpaceOnUse"><path style="fill:#f0f;fill-opacity:1;stroke:none;display:inline" id="path3750" d="m -20,0 0,16 16,0 0,-16 -16,0 z M -15.5,1.46875 -12,3.9375 -8.5,1.46875 -5,3.9375 -8.5,6.625 -5,8.96875 -12,14 -19,8.96875 -15.5,6.625 -19,3.9375 -15.5,1.46875 z"/></clipPath><linearGradient id="linearGradient3752" x1="10.974" x2="10.974" y1="1.082" y2="8.948" gradientUnits="userSpaceOnUse" xlink:href="#StandardGradient-6"/><linearGradient id="linearGradient3754" x1="3.855" x2="3.855" y1="7.119" y2="15.008" gradientUnits="userSpaceOnUse" xlink:href="#StandardGradient-6"/><linearGradient id="linearGradient3760" x1="3.855" x2="3.855" y1="7.119" y2="15.008" gradientUnits="userSpaceOnUse" xlink:href="#StandardGradient-6"/><linearGradient id="linearGradient3765" x1="3.855" x2="3.855" y1="7.119" y2="15.008" gradientTransform="translate(0,1)" gradientUnits="userSpaceOnUse" xlink:href="#StandardGradient-6"/><linearGradient id="linearGradient3771" x1="3.855" x2="3.855" y1="7.119" y2="15.008" gradientUnits="userSpaceOnUse" xlink:href="#StandardGradient-6"/><linearGradient id="linearGradient3773" x1="3.855" x2="3.855" y1="7.119" y2="15.008" gradientTransform="translate(0,1)" gradientUnits="userSpaceOnUse" xlink:href="#StandardGradient-6"/><linearGradient id="linearGradient3778" x1="3.855" x2="3.855" y1="7.119" y2="15.008" gradientUnits="userSpaceOnUse" xlink:href="#StandardGradient-6"/><linearGradient id="linearGradient3790" x1="3.855" x2="3.855" y1="7.119" y2="15.008" gradientTransform="translate(0.01442091,-0.014421)" gradientUnits="userSpaceOnUse" xlink:href="#StandardGradient-6"/><linearGradient id="linearGradient3796" x1="3.855" x2="3.855" y1="7.119" y2="15.008" gradientTransform="translate(-19.985579,-0.014421)" gradientUnits="userSpaceOnUse" xlink:href="#StandardGradient-6"/><linearGradient id="linearGradient3798" x1="10.974" x2="10.974" y1="1.082" y2="8.948" gradientTransform="translate(-20,0)" gradientUnits="userSpaceOnUse" xlink:href="#StandardGradient-6"/><clipPath id="clipPath3806" clipPathUnits="userSpaceOnUse"><path style="fill:#f0f;fill-opacity:1;stroke:none;display:inline" id="path3808" d="m -20,0 0,16 16,0 0,-16 -16,0 z m 14.28125,1 c 0.1826931,0 0.3653865,0.084136 0.5,0.21875 0.269228,0.269228 0.269228,0.730773 0,1 L -8.03125,5 l 0,1.53125 a 0.52760556,0.52613824 0 0 1 -0.15625,0.375 L -10.15625,8.875 a 0.52760556,0.52613824 0 0 1 -0.0625,0.03125 l -2.6875,-2.6875 a 0.52760556,0.52613824 0 0 1 0,-0.03125 0.52760556,0.52613824 0 0 1 0.03125,-0.03125 l 1.96875,-1.96875 a 0.52760556,0.52613824 0 0 1 0.375,-0.15625 l 1.53125,0 2.78125,-2.8125 C -6.084136,1.084136 -5.9014431,1 -5.71875,1 z m -8.125,6.125 a 0.52760556,0.52613824 0 0 1 0.03125,0 l 2.6875,2.6875 a 0.52760556,0.52613824 0 0 1 0,0.03125 0.52760556,0.52613824 0 0 1 -0.03125,0.03125 L -13.125,11.84375 A 0.52760556,0.52613824 0 0 1 -13.5,12 l -1.53125,0 -2.78125,2.8125 c -0.269228,0.269228 -0.730772,0.269228 -1,0 -0.269228,-0.269228 -0.269228,-0.730773 0,-1 L -16,11.03125 -16,9.5 a 0.52760556,0.52613824 0 0 1 0.15625,-0.375 L -13.875,7.15625 A 0.52760556,0.52613824 0 0 1 -13.84375,7.125 z"/></clipPath><linearGradient id="linearGradient3720" x1="7" x2="7" y1="1" y2="14.038" gradientUnits="userSpaceOnUse" xlink:href="#StandardGradient-1"/><linearGradient id="linearGradient3726" x1="7" x2="7" y1="1" y2="14.038" gradientTransform="translate(0,1)" gradientUnits="userSpaceOnUse" xlink:href="#StandardGradient-1"/><linearGradient id="linearGradient3728" x1="7" x2="7" y1="1" y2="14.038" gradientUnits="userSpaceOnUse" xlink:href="#StandardGradient-1"/><linearGradient id="linearGradient3733" x1="7" x2="7" y1="1" y2="14.038" gradientTransform="translate(0,1)" gradientUnits="userSpaceOnUse" xlink:href="#StandardGradient-1"/><linearGradient id="linearGradient3737" x1="7" x2="7" y1="1" y2="14.038" gradientUnits="userSpaceOnUse" xlink:href="#StandardGradient-1"/><linearGradient id="linearGradient3742" x1="7" x2="7" y1="1" y2="14.038" gradientTransform="translate(-20,0)" gradientUnits="userSpaceOnUse" xlink:href="#StandardGradient-1"/><clipPath id="clipPath3749" clipPathUnits="userSpaceOnUse"><path style="fill:#f0f;fill-opacity:1;stroke:none;display:inline" id="path3751" d="m -20,0 0,11 c 0,-0.554 0.446,-1 1,-1 l 1,0 c 0.554,0 1,0.446 1,1 l 0,2 c 0,0.554 -0.446,1 -1,1 l -1,0 c -0.554,0 -1,-0.446 -1,-1 l 0,3 16,0 0,-16 -16,0 z m 13,1 1,0 c 0.554,0 1,0.446 1,1 l 0,11 c 0,0.554 -0.446,1 -1,1 l -1,0 c -0.554,0 -1,-0.446 -1,-1 L -8,2 c 0,-0.554 0.446,-1 1,-1 z m -4,3 1,0 c 0.554,0 1,0.446 1,1 l 0,8 c 0,0.554 -0.446,1 -1,1 l -1,0 c -0.554,0 -1,-0.446 -1,-1 l 0,-8 c 0,-0.554 0.446,-1 1,-1 z m -4,3 1,0 c 0.554,0 1,0.446 1,1 l 0,5 c 0,0.554 -0.446,1 -1,1 l -1,0 c -0.554,0 -1,-0.446 -1,-1 l 0,-5 c 0,-0.554 0.446,-1 1,-1 z"/></clipPath><clipPath id="clipPath3820" clipPathUnits="userSpaceOnUse"><path style="fill:#f0f;fill-opacity:1;stroke:none;display:inline" id="path3822" d="m -19.535739,2.999982 0,16 16.0000003,0 0,-16 -16.0000003,0 z m 6,1 4.0000003,0 c 0.554,0 1,0.446 1,1 l 0,4 1,0 c 0.554,0 1,0.446 1,1 l 0,6 c 0,0.554 -0.446,1 -1,1 l -8.0000003,0 c -0.554,0 -1,-0.446 -1,-1 l 0,-6 c 0,-0.554 0.446,-1 1,-1 l 1,0 0,-4 c 0,-0.554 0.446,-1 1,-1 z m 1,2 0,3 2,0 0,-3 -2,0 z"/></clipPath><linearGradient id="linearGradient3790-0" x1="8.464" x2="8.464" y1="4" y2="17.038" gradientTransform="translate(-0.4642613,-2.999982)" gradientUnits="userSpaceOnUse" xlink:href="#linearGradient4036"/><linearGradient id="linearGradient4036" x1="11.64" x2="11.64" y1="4.078" y2="17.924" gradientUnits="userSpaceOnUse"><stop id="stop4038" offset="0" style="stop-color:#282828;stop-opacity:1"/><stop id="stop4040" offset="1" style="stop-color:#787878;stop-opacity:1"/></linearGradient><linearGradient id="linearGradient6070" x1="8.464" x2="8.464" y1="4" y2="17.038" gradientTransform="translate(-0.4642616,-2.999982)" gradientUnits="userSpaceOnUse" xlink:href="#linearGradient4036"/><linearGradient id="linearGradient6074" x1="8.464" x2="8.464" y1="4" y2="17.038" gradientTransform="translate(-0.4642616,-2.999982)" gradientUnits="userSpaceOnUse" xlink:href="#linearGradient4036"/><linearGradient id="linearGradient3720-9" x1="7" x2="7" y1="1" y2="14.038" gradientUnits="userSpaceOnUse" xlink:href="#StandardGradient-1-0"/><linearGradient id="StandardGradient-1-0" x1="7.19" x2="7.19" y1="6.955" y2="18.319" gradientTransform="scale(1.1467263,0.8720476)" gradientUnits="userSpaceOnUse"><stop style="stop-color:#000;stop-opacity:.86274511" id="stop3280-6" offset="0"/><stop style="stop-color:#000;stop-opacity:.47058824" id="stop3282-7" offset="1"/></linearGradient><linearGradient id="linearGradient3129" x1="7" x2="7" y1="1" y2="14.038" gradientTransform="translate(-4,0)" gradientUnits="userSpaceOnUse" xlink:href="#StandardGradient-1-0"/><linearGradient id="linearGradient3808-9" x1="56" x2="56" y1="16" y2="80" gradientTransform="matrix(0.20617012,0,0,0.20617012,-1.8961661,-2.3085058)" gradientUnits="userSpaceOnUse" xlink:href="#StandardGradient-3"/><linearGradient id="StandardGradient-3" x1="11.999" x2="11.999" y1=".922" y2="19.387" gradientTransform="scale(0.9219544,1.0846523)" gradientUnits="userSpaceOnUse"><stop style="stop-color:#000;stop-opacity:.86274511" id="stop3283-5" offset="0"/><stop style="stop-color:#000;stop-opacity:.47058824" id="stop2651-2" offset="1"/></linearGradient><linearGradient id="linearGradient2949" x1="27.056" x2="43.429" y1="5.134" y2="5.134" gradientTransform="matrix(0.85509232,0,0,1.178723,-69.95703,-37.194216)" gradientUnits="userSpaceOnUse" xlink:href="#linearGradient2895"/><linearGradient id="linearGradient2895"><stop id="stop2897" offset="0" style="stop-color:black;stop-opacity:1"/><stop id="stop2899" offset="1" style="stop-color:black;stop-opacity:0"/></linearGradient><radialGradient id="radialGradient2952" cx="30" cy="33.188" r="4.688" fx="30" fy="33.188" gradientTransform="matrix(1.5279732,-7.0647448e-7,2.1308638e-7,0.46086628,-85.660631,-22.437836)" gradientUnits="userSpaceOnUse" xlink:href="#linearGradient5060"/><linearGradient id="linearGradient5060"><stop id="stop5062" offset="0" style="stop-color:black;stop-opacity:1"/><stop id="stop5064" offset="1" style="stop-color:black;stop-opacity:0"/></linearGradient><linearGradient id="linearGradient2955-5" x1="38" x2="43" y1="39" y2="38.6" gradientTransform="translate(-69.821429,-36.142857)" gradientUnits="userSpaceOnUse" xlink:href="#linearGradient5060"/><linearGradient id="linearGradient3171-0"><stop id="stop3173-4" offset="0" style="stop-color:black;stop-opacity:1"/><stop id="stop3175-8" offset="1" style="stop-color:black;stop-opacity:0"/></linearGradient><linearGradient id="linearGradient2958" x1="22" x2="17" y1="39" y2="37.438" gradientTransform="translate(-69.821429,-36.142857)" gradientUnits="userSpaceOnUse" xlink:href="#linearGradient5060"/><linearGradient id="linearGradient3178-7"><stop id="stop3180" offset="0" style="stop-color:black;stop-opacity:1"/><stop id="stop3182" offset="1" style="stop-color:black;stop-opacity:0"/></linearGradient><linearGradient id="linearGradient6954"><stop id="stop6960" offset="0" style="stop-color:#f5f5f5;stop-opacity:1"/><stop id="stop6962" offset="1" style="stop-color:#d2d2d2;stop-opacity:1"/></linearGradient><linearGradient id="linearGradient3785-1"><stop id="stop3787" offset="0" style="stop-color:#bdbdbd;stop-opacity:1"/><stop id="stop3789" offset="1" style="stop-color:#8c8c8c;stop-opacity:1"/></linearGradient><linearGradient id="linearGradient2966" x1="24.787" x2="24.875" y1="53.869" y2="83.5" gradientTransform="translate(-65.69638,-76.642857)" gradientUnits="userSpaceOnUse" xlink:href="#linearGradient3341"/><linearGradient id="linearGradient3341"><stop id="stop3343" offset="0" style="stop-color:white;stop-opacity:1"/><stop id="stop3345" offset="1" style="stop-color:white;stop-opacity:0"/></linearGradient><linearGradient id="linearGradient3197"><stop id="stop3199" offset="0" style="stop-color:#f5f5f5;stop-opacity:1"/><stop id="stop3201" offset="1" style="stop-color:#d2d2d2;stop-opacity:1"/></linearGradient><linearGradient id="linearGradient3204"><stop id="stop3206" offset="0" style="stop-color:#bdbdbd;stop-opacity:1"/><stop id="stop3208" offset="1" style="stop-color:#8c8c8c;stop-opacity:1"/></linearGradient><radialGradient id="radialGradient2974" cx="32" cy="41.5" r="21" fx="32" fy="41.5" gradientTransform="matrix(0.85714286,0,0,0.28571429,-67.25,72)" gradientUnits="userSpaceOnUse" xlink:href="#linearGradient5060"/><linearGradient id="linearGradient3211"><stop id="stop3213" offset="0" style="stop-color:black;stop-opacity:1"/><stop id="stop3215" offset="1" style="stop-color:black;stop-opacity:0"/></linearGradient><radialGradient id="radialGradient3225" cx="32" cy="41.5" r="21" fx="32" fy="41.5" gradientTransform="matrix(0.85714286,0,0,0.28571429,-67.25,-8)" gradientUnits="userSpaceOnUse" xlink:href="#linearGradient5060"/></defs><metadata id="metadata7"/><g id="layer1"><path style="fill:#000;fill-opacity:1;stroke:none" id="path3935" d="m -13.771529,5.9050966 c 0.181174,0.8569201 0.2823,1.5051186 0.135325,2.3620387 -1.145861,0.9506717 -4.076448,1.3778558 -4.072056,2.3620387 l -0.393673,2.558875 c 0,0.978388 2.731928,1.771529 6.101933,1.771529 3.370005,0 6.101933,-0.793141 6.101933,-1.771529 L -6.29174,10.629174 c -0.0047,-0.8423279 -2.952548,-1.377856 -4.084358,-2.3620387 -0.09668,-0.7953524 -0.01972,-1.5666863 0.147627,-2.3620387 l -3.543058,0 z"/><path id="path3937" d="m -9.75,73.09375 c -3.766412,0.121068 -7.468069,1.386362 -11.40625,3.25 a 1.25331,1.25331 0 0 0 -0.6875,1.4375 l 0.625,2.53125 a 1.25331,1.25331 0 0 0 0.78125,0.84375 c 0.161757,0.06256 0.275429,0.183794 0.71875,0.3125 2.335298,0.677989 5.907957,1.15625 9.90625,1.15625 3.9982931,0 7.5709518,-0.478261 9.90625,-1.15625 0.44332111,-0.128707 0.55699247,-0.24994 0.71875,-0.3125 a 1.25331,1.25331 0 0 0 0.78125,-0.8125 L 2.25,78.03125 a 1.25331,1.25331 0 0 0 -0.53125,-1.375 C -2.2051532,74.042333 -5.9835879,72.972682 -9.75,73.09375 z" transform="matrix(0.34209356,0,0,0.34209356,-8.638748,-12.26548)" style="fill:#000;fill-opacity:1;stroke:none"/><rect id="rect3939" width="1.094" height="2.187" x="-15.57" y="-2.755" rx="1.181" ry="1.181" transform="matrix(0.9205234,-0.39068744,0.39068744,0.9205234,0,0)" style="fill:#000;fill-opacity:1;stroke:none"/><rect style="fill:#000;fill-opacity:1;stroke:none" id="rect3941" width="1.094" height="2.187" x="6.557" y="6.636" rx="1.181" ry="1.181" transform="matrix(-0.9205234,-0.39068744,-0.39068744,0.9205234,0,0)"/><path style="fill:#000;fill-opacity:1;stroke:none" id="path3943" d="m -12,0 c -1.630647,0 -2.952548,1.2337743 -2.952548,2.7557118 0.01278,0.5632387 0.06085,1.232346 0.393673,2.7557117 0.196837,0.5905097 1.558851,2.1652021 1.574692,2.3620387 0.381733,0.1968365 1.771529,0.1968365 2.165203,0 0,-0.1968366 1.181019,-1.771529 1.377855,-2.3620387 C -9.066594,3.9281919 -9.06754,3.3462214 -9.047452,2.7557118 -9.047452,1.2337743 -10.369352,0 -12,0 z"/><path id="path3157" d="m 38,0 c -1.630647,0 -2.9375,1.2280625 -2.9375,2.75 0.0037,0.1620664 0.01579,0.3963239 0.03125,0.59375 -0.27885,0.118349 -0.299198,0.6610508 -0.0625,1.21875 0.09386,0.2211566 0.213411,0.3909677 0.34375,0.53125 0.03167,0.1567366 0.02336,0.2271022 0.0625,0.40625 0.196837,0.5905097 1.577909,2.1781634 1.59375,2.375 0.381733,0.1968365 1.762576,0.1968365 2.15625,0 0,-0.1968366 1.178164,-1.7844903 1.375,-2.375 C 40.60622,5.3151913 40.62213,5.1903792 40.65625,5.03125 40.764832,4.8997227 40.857512,4.7509639 40.9375,4.5625 41.162363,4.0326858 41.147829,3.5269131 40.90625,3.375 40.920493,3.1615298 40.931227,2.9343906 40.9375,2.75 40.9375,1.2280625 39.630648,0 38,0 z m -1.78125,8.40625 c -1.233461,0.8706787 -3.941711,1.2750309 -3.9375,2.21875 l -0.375,2.5625 c 0,0.519013 0.775005,0.988493 2,1.3125 l 0.1875,0.71875 A 0.42874928,0.42874928 0 0 0 34.375,15.5 c 0.05534,0.0214 0.09834,0.04972 0.25,0.09375 C 35.42389,15.825686 36.63221,16 38,16 39.36779,16 40.60736,15.825686 41.40625,15.59375 41.557907,15.54972 41.569664,15.5214 41.625,15.5 a 0.42874928,0.42874928 0 0 0 0.28125,-0.28125 L 42.125,14.5 c 1.208619,-0.323691 1.96875,-0.797472 1.96875,-1.3125 l -0.375,-2.5625 C 43.714419,9.848863 41.21753,9.3437322 39.9375,8.5 A 0.97584188,0.97584188 0 0 1 39.625,8.75 C 39.020006,9.0524961 38.608286,9 38.09375,9 37.836482,9 37.587947,9.0004922 37.34375,8.96875 37.099553,8.937008 36.902156,8.909026 36.59375,8.75 a 0.97584188,0.97584188 0 0 1 -0.375,-0.34375 z" style="fill:#bebebe;fill-opacity:1;stroke:none"/><path style="fill:#bebebe;fill-opacity:1;stroke:none" id="path3159" d="m 8,0.7783785 c -2.256463,0 -4.0648649,1.699373 -4.0648649,3.8054054 0.00509,0.2242649 0.021845,0.5484266 0.043244,0.8216216 -0.3858679,0.1637694 -0.4140257,0.9147514 -0.086487,1.6864865 0.1298861,0.3060329 0.295314,0.5410147 0.4756757,0.7351351 0.043823,0.2168896 0.032325,0.3142604 0.086486,0.5621622 0.1511376,0.4534118 0.7470076,1.3420395 1.2972972,2.0756757 0.05396,0.563421 0.109936,1.132004 0,1.772973 -1.5856236,1.315524 -5.67094212,1.881347 -5.66486451,3.243243 L 0,16 16,16 15.91351,15.481081 c -0.0065,-1.1656 -4.098682,-1.881347 -5.664862,-3.243243 -0.06337,-0.521335 -0.07545,-1.043272 -0.04324,-1.556757 0.501434,-0.7738141 1.172201,-1.7868737 1.34054,-2.2918917 0.0605,-0.2557354 0.08252,-0.4284482 0.129729,-0.6486487 0.150255,-0.1820053 0.278504,-0.3878554 0.38919,-0.6486486 0.311162,-0.7331483 0.291049,-1.4330284 -0.04324,-1.6432432 0.01971,-0.2953966 0.03456,-0.6097082 0.04324,-0.8648649 0,-2.1060324 -1.8084,-3.8054054 -4.064865,-3.8054054 z"/></g></svg>